<?xml version="1.0" encoding="UTF-8"?>
<svg width="752pt" height="752pt" version="1.1" viewBox="0 0 752 752" xmlns="http://www.w3.org/2000/svg">
 <path d="m375.85 167.62c-9.8281 0.003906-19.664 3.7031-27.082 11.102l-45.879 45.73-124.46 124.16c-0.36719 0.375-0.71484 0.77344-1.0352 1.1836-11.73 14.828-13.859 37.98 1.0352 52.836l45.73 45.73c14.848 14.828 39.324 14.797 54.164 0l97.383-97.234 97.527 97.234c7.4219 7.4062 17.293 11.246 27.082 11.246 9.7891 0 19.664-3.8477 27.082-11.246l45.73-45.582c14.848-14.809 14.848-39.359 0-54.168l-124.46-124.16-45.73-45.73c-0.03125-0.03125-0.11719 0.027344-0.14844 0-7.4102-7.3555-17.145-11.102-26.938-11.102zm-0.14453 28.27c2.4883-0.003906 5.0742 0.93359 7.1016 2.957l45.73 45.73 124.46 124.17c4.0469 4.0352 4.0469 9.875 0 13.91l-45.73 45.582c-2.0312 2.0234-4.4141 2.9609-6.957 2.9609-2.543 0-5.082-0.94141-7.1055-2.9609l-107.44-107.15c-5.5352-5.4688-14.445-5.4688-19.98 0l-107.44 107.15c-4.0547 4.0469-10.012 4.0469-14.062 0l-45.73-45.73c-3.8555-3.8438-3.5938-8.6992 0.74219-14.504l123.72-123.43 45.73-45.73c2.0273-2.0234 4.4648-2.957 6.957-2.957zm0.29297 227.46c-44.293 0-80.508 36.215-80.508 80.508 0 44.297 36.215 80.512 80.508 80.512 44.297 0 80.512-36.215 80.512-80.512 0-44.293-36.215-80.508-80.512-80.508zm0 28.414c28.941 0 52.094 23.156 52.094 52.094 0 28.941-23.152 52.094-52.094 52.094-28.938 0-52.094-23.152-52.094-52.094 0-28.938 23.156-52.094 52.094-52.094z" fill="#168ee2"/>
</svg>
