<svg xmlns="http://www.w3.org/2000/svg" viewBox="0 0 50 50"><path d="M46 21H29v-5.721l-3-1v-2.377c1.894-.356 3-1.754 3-3.903 0-2.57-2.979-5.416-3.319-5.732L25 1.634l-.681.634C23.979 2.584 21 5.43 21 8c0 2.149 1.106 3.546 3 3.903v1.71l-3-1V21H4v12H1v16h48V33h-3V21zM23 8c0-1.026 1.048-2.517 1.998-3.569C25.854 5.381 27 6.9 27 8c0 1.383-.617 2-2 2s-2-.617-2-2zm0 7.387 4 1.333V21h-4v-5.613zM21 23h23v4.719A1.959 1.959 0 0 1 43 28c-1.103 0-2-.897-2-2h-2c0 1.103-.897 2-2 2s-2-.897-2-2h-2c0 1.103-.897 2-2 2s-2-.897-2-2h-2c0 1.103-.897 2-2 2s-2-.897-2-2h-2c0 1.103-.897 2-2 2s-2-.897-2-2h-2c0 1.103-.897 2-2 2s-2-.897-2-2H9c0 1.103-.897 2-2 2-.352 0-.695-.1-1-.281V23h15zM6 29.854c.326.086.659.146 1 .146 1.2 0 2.266-.542 3-1.382.734.84 1.8 1.382 3 1.382s2.266-.542 3-1.382c.734.84 1.8 1.382 3 1.382s2.266-.542 3-1.382c.734.84 1.8 1.382 3 1.382s2.266-.542 3-1.382c.734.84 1.8 1.382 3 1.382s2.266-.542 3-1.382c.734.84 1.8 1.382 3 1.382s2.266-.542 3-1.382c.734.84 1.8 1.382 3 1.382.341 0 .674-.06 1-.146V33H6v-3.146zM47 35v12H3V35h44z"/></svg>